<svg width="212" height="286" viewBox="0 0 212 286" fill="none" xmlns="http://www.w3.org/2000/svg">
<path d="M199.005 0.0665482C197.108 -0.183221 195.208 0.274403 193.665 1.3669L3.32023 129.596C0.904057 131.218 -0.349119 134.064 0.085027 136.94C0.51918 139.817 2.56374 142.176 5.32169 143.032L80.7433 166.434L8.03238 273.498C5.65471 276.487 5.90422 280.754 8.58061 283.464C11.257 286.173 15.5128 286.477 18.5477 284.154L208.443 155.785C210.859 154.163 212.112 151.317 211.678 148.441C211.244 145.564 209.199 143.205 206.441 142.349L133.721 119.785L204.025 11.7281C205.361 9.70909 205.661 7.15285 204.792 4.88107C203.924 2.60928 202.014 0.907865 199.681 0.276121C199.455 0.206262 199.23 0.136407 199.005 0.0665482ZM171.264 34.5851L115.457 119.786C114.129 121.777 113.847 124.277 114.64 126.494C115.452 128.749 117.288 130.489 119.576 131.168L186.893 152.055L42.493 249.936L99.233 166.503C100.56 164.512 100.842 162.012 100.05 159.795C99.2374 157.54 97.4017 155.8 95.1135 155.121L24.87 133.326L171.264 34.5851Z" fill="#ff7c1e"/>
</svg>
